#!OML:ASF H:\Not Pregnant\Project 1\Capture day 1\Session 1\non-pregnant.ASF
:FULLY-SPECIFIED
:DEGREES
2294
root 8.03207 15.5761 28.6344 203.193 -78.5502 -191.071
lowerback 3.1398 3.0552 3.42181
upperback -8.31678 4.00654 -2.14083
thorax -10.2202 1.47329 -4.65494
lowerneck 4.0475 -7.03246 -32.0195
upperneck 9.67811 -15.0008 34.3157
head 7.66753 -8.33766 17.5428
rclavicle -4.29189e-014 -7.05686e-015
rhumerus -45.4654 12.0084 -94.3105
rradius 33.3143
rwrist 9.54167
rhand -3.33456 -6.62438
rfingers 7.12502
rthumb 22.3929 -35.3465
lclavicle -4.29189e-014 -7.05686e-015
lhumerus -51.3541 1.41744 78.0844
lradius 41.2107
lwrist 32.5859
lhand -30.7114 -23.51
lfingers 7.12502
lthumb -4.00448 6.43209
rfemur -32.9572 -3.19582 16.4087
rtibia 42.7782
rfoot -21.8488 -1.48971
rtoes -13.9342
lfemur -22.0722 6.23752 4.56534
ltibia 36.6717
lfoot 13.9087 8.131
ltoes -10.5486
2295
root 8.01408 15.5749 28.6855 203.897 -78.7187 -191.789
lowerback 3.02511 2.95273 3.30775
upperback -8.33739 3.85144 -2.14016
thorax -10.1968 1.40618 -4.56716
lowerneck 3.9856 -7.01158 -32.0454
upperneck 9.77325 -14.9544 34.2337
head 7.68173 -8.30987 17.5155
rclavicle 5.20567e-014 7.95139e-015
rhumerus -45.5873 11.8574 -94.0121
rradius 33.303
rwrist 9.67001
rhand -3.25491 -6.58367
rfingers 7.12502
rthumb 22.4693 -35.2965
lclavicle 5.20567e-014 7.95139e-015
lhumerus -51.3717 1.54703 77.8801
lradius 41.0185
lwrist 31.8815
lhand -31.4863 -23.5095
lfingers 7.12502
lthumb -4.75272 6.41722
rfemur -32.8968 -3.41233 16.0933
rtibia 42.7865
rfoot -21.8588 -1.52972
rtoes -14.165
lfemur -21.4781 5.86365 5.10084
ltibia 35.5156
lfoot 15.5153 8.60232
ltoes -9.57307
2296
root 7.99577 15.5722 28.7371 204.579 -78.8865 -192.5
lowerback 2.92071 2.86545 3.18641
upperback -8.35234 3.71657 -2.14828
thorax -10.1705 1.34947 -4.48758
lowerneck 3.95607 -6.99693 -32.0435
upperneck 9.83525 -14.922 34.1633
head 7.68391 -8.29038 17.4845
rclavicle 3.22652e-014 1.49089e-015
rhumerus -45.7082 11.6478 -93.6929
rradius 33.2753
rwrist 9.77975
rhand -3.15843 -6.55721
rfingers 7.12502
rthumb 22.5619 -35.2589
lclavicle 3.22652e-014 1.49089e-015
lhumerus -51.3682 1.62293 77.6714
lradius 40.8081
lwrist 31.0945
lhand -32.1729 -23.4298
lfingers 7.12502
lthumb -5.41563 6.48095
rfemur -32.8233 -3.62702 15.7823
rtibia 42.8147
rfoot -21.8805 -1.58207
rtoes -14.4309
lfemur -20.8625 5.46002 5.61279
ltibia 34.3462
lfoot 17.0129 9.1652
ltoes -8.92278
2297
root 7.97754 15.5684 28.7905 205.244 -79.053 -193.19
lowerback 2.81752 2.79555 3.07829
upperback -8.36938 3.60553 -2.169
thorax -10.143 1.30266 -4.43179
lowerneck 3.96187 -6.99001 -32.013
upperneck 9.86552 -14.9078 34.1048
head 7.67552 -8.28151 17.4493
rclavicle -2.1593e-014 4.96962e-015
rhumerus -45.8179 11.3267 -93.3262
rradius 33.2161
rwrist 9.9221
rhand -3.03091 -6.51487
rfingers 7.12502
rthumb 22.6843 -35.2016
lclavicle -2.1593e-014 4.96962e-015
lhumerus -51.3425 1.65483 77.4513
lradius 40.5749
lwrist 30.2252
lhand -32.7313 -23.2802
lfingers 7.12502
lthumb -5.95483 6.61611
rfemur -32.7615 -3.85234 15.4744
rtibia 42.8572
rfoot -21.9098 -1.6209
rtoes -14.7037
lfemur -20.2523 5.00872 6.09906
ltibia 33.1663
lfoot 18.4221 9.72403
ltoes -8.68587
2298
root 7.95945 15.5635 28.8461 205.908 -79.2142 -193.874
lowerback 2.71366 2.7243 2.97385
upperback -8.38481 3.49419 -2.17973
thorax -10.1135 1.25598 -4.36739
lowerneck 3.95495 -6.98259 -32.0093
upperneck 9.89576 -14.8904 34.0554
head 7.67228 -8.27128 17.4255
rclavicle 1.05604e-016 -1.56046e-014
rhumerus -45.9276 11.0501 -92.9632
rradius 33.1422
rwrist 9.9889
rhand -2.92017 -6.5021
rfingers 7.12502
rthumb 22.7906 -35.1758
lclavicle 1.05604e-016 -1.56046e-014
lhumerus -51.3255 1.65756 77.2582
lradius 40.3577
lwrist 29.3618
lhand -33.1663 -23.0524
lfingers 7.12502
lthumb -6.37481 6.83168
rfemur -32.7141 -4.10506 15.1672
rtibia 42.9115
rfoot -21.9495 -1.63256
rtoes -15.0045
lfemur -19.65 4.50905 6.55406
ltibia 31.9742
lfoot 19.7486 10.2311
ltoes -8.55014
2299
root 7.94136 15.558 28.9039 206.6 -79.3721 -194.579
lowerback 2.60906 2.6697 2.88165
upperback -8.40555 3.40514 -2.20466
thorax -10.0856 1.21822 -4.32775
lowerneck 3.98692 -6.97903 -31.9824
upperneck 9.89865 -14.8874 34.0168
head 7.65781 -8.27039 17.3993
rclavicle -2.98177e-016 -1.78906e-015
rhumerus -46.037 10.6856 -92.571
rradius 33.0432
rwrist 10.0387
rhand -2.82597 -6.51466
rfingers 7.12502
rthumb 22.881 -35.1772
lclavicle -2.98177e-016 -1.78906e-015
lhumerus -51.3045 1.58992 77.0757
lradius 40.1426
lwrist 28.4993
lhand -33.4532 -22.7661
lfingers 7.12502
lthumb -6.65172 7.10943
rfemur -32.6765 -4.369 14.8517
rtibia 42.9721
rfoot -21.9963 -1.6267
rtoes -15.3039
lfemur -19.0648 3.96357 6.97332
ltibia 30.7756
lfoot 21.0201 10.6046
ltoes -8.27652
2300
root 7.92321 15.5518 28.9638 207.323 -79.5222 -195.312
lowerback 2.50776 2.63461 2.80141
upperback -8.43326 3.34178 -2.24833
thorax -10.0634 1.19066 -4.3182
lowerneck 4.06457 -6.97645 -31.9317
upperneck 9.87519 -14.8978 33.9924
head 7.63099 -8.27914 17.3733
rclavicle 2.11147e-014 1.21259e-014
rhumerus -46.1756 10.3289 -92.2141
rradius 32.9431
rwrist 9.97783
rhand -2.77599 -6.57499
rfingers 7.12502
rthumb 22.9289 -35.2316
lclavicle 2.11147e-014 1.21259e-014
lhumerus -51.2886 1.42397 76.9189
lradius 39.9459
lwrist 27.6892
lhand -33.5894 -22.4301
lfingers 7.12502
lthumb -6.78324 7.44124
rfemur -32.6459 -4.65166 14.5262
rtibia 43.0375
rfoot -22.0523 -1.59832
rtoes -15.6139
lfemur -18.4963 3.37185 7.35277
ltibia 29.5741
lfoot 22.2776 10.7918
ltoes -7.75401
2301
root 7.9049 15.545 29.0259 208.038 -79.6661 -196.031
lowerback 2.40704 2.61047 2.7389
upperback -8.46253 3.29422 -2.29859
thorax -10.0405 1.16903 -4.32746
lowerneck 4.16044 -6.97889 -31.8693
upperneck 9.83548 -14.9191 33.974
head 7.59965 -8.29423 17.3457
rclavicle -2.31833e-014 2.18663e-015
rhumerus -46.2999 9.8906 -91.8115
rradius 32.8087
rwrist 9.96663
rhand -2.72601 -6.62357
rfingers 7.12502
rthumb 22.9769 -35.2742
lclavicle -2.31833e-014 2.18663e-015
lhumerus -51.2786 1.20021 76.7812
lradius 39.7767
lwrist 26.9559
lhand -33.5856 -22.0689
lfingers 7.12502
lthumb -6.7795 7.80251
rfemur -32.6199 -4.94109 14.1969
rtibia 43.1057
rfoot -22.1162 -1.55797
rtoes -15.9415
lfemur -17.9477 2.74875 7.69762
ltibia 28.3752
lfoot 23.521 10.8459
ltoes -6.73639
2302
root 7.88638 15.5372 29.0906 208.703 -79.8014 -196.698
lowerback 2.30839 2.58872 2.68959
upperback -8.4935 3.25199 -2.33876
thorax -10.0203 1.14929 -4.3341
lowerneck 4.25621 -6.97997 -31.8198
upperneck 9.79677 -14.9388 33.9572
head 7.56943 -8.30907 17.3224
rclavicle -2.11209e-015 2.66868e-014
rhumerus -46.4382 9.53166 -91.4365
rradius 32.6682
rwrist 9.87805
rhand -2.72054 -6.7028
rfingers 7.12502
rthumb 22.9821 -35.3528
lclavicle -2.11209e-015 2.66868e-014
lhumerus -51.28 1.00471 76.6398
lradius 39.6249
lwrist 26.2751
lhand -33.4337 -21.7057
lfingers 7.12502
lthumb -6.63286 8.17041
rfemur -32.5994 -5.24111 13.8693
rtibia 43.178
rfoot -22.1894 -1.49725
rtoes -16.2885
lfemur -17.4177 2.09561 8.01054
ltibia 27.1907
lfoot 24.7559 10.7997
ltoes -5.36726
2303
root 7.86765 15.5282 29.1579 209.306 -79.9267 -197.298
lowerback 2.20869 2.54992 2.63972
upperback -8.51616 3.19077 -2.33872
thorax -9.99388 1.12283 -4.29507
lowerneck 4.28768 -6.98287 -31.8316
upperneck 9.78798 -14.9439 33.9263
head 7.55973 -8.31336 17.307
rclavicle -3.50793e-014 -5.1684e-015
rhumerus -46.5463 9.26061 -91.0205
rradius 32.495
rwrist 9.86562
rhand -2.67016 -6.71913
rfingers 7.12502
rthumb 23.0305 -35.3631
lclavicle -3.50793e-014 -5.1684e-015
lhumerus -51.2951 0.91818 76.5066
lradius 39.496
lwrist 25.6546
lhand -33.1527 -21.3418
lfingers 7.12502
lthumb -6.36164 8.54269
rfemur -32.5869 -5.55631 13.5443
rtibia 43.2563
rfoot -22.273 -1.40965
rtoes -16.6592
lfemur -16.9088 1.42634 8.28574
ltibia 26.0354
lfoot 25.973 10.698
ltoes -3.86756
